<svg width="309" height="301" viewBox="0 0 309 301" fill="none" xmlns="http://www.w3.org/2000/svg">
<g clip-path="url(#clip0_32_2)">
<path d="M154.5 137.958L154.5 50.1667L218.875 25.0834L218.875 112.875L154.5 137.958ZM90.1251 112.875L90.1251 25.0834L25.7501 50.1667L25.7501 137.958L90.1251 112.875ZM154.5 225.75L154.5 137.958L90.1251 163.042L90.1251 250.833L154.5 225.75Z" fill="white"/>
<path d="M283.25 137.958L218.875 112.875L218.875 25.0834L283.25 50.1668L283.25 137.958ZM154.5 50.1667L90.125 25.0834L90.125 112.875L154.5 137.958L154.5 50.1667ZM218.875 163.042L154.5 137.958L154.5 225.75L218.875 250.833L218.875 163.042Z" fill="white"/>
<path d="M154.5 137.958L218.875 112.875L283.25 137.958L218.875 163.042L154.5 137.958ZM90.125 163.042L154.5 137.958L90.125 112.875L25.7501 137.958L90.125 163.042ZM154.5 275.917L218.875 250.833L154.5 225.75L90.125 250.833L154.5 275.917Z" fill="white"/>
<path d="M23.3618 143.783L83.6875 167.288L83.6875 250.833C83.6875 253.399 85.2841 255.702 87.7367 256.658L152.112 281.741C153.645 282.342 155.356 282.342 156.89 281.741L221.263 256.658C223.715 255.702 225.313 253.399 225.313 250.833L225.313 167.288L285.638 143.783C288.09 142.827 289.688 140.524 289.688 137.958L289.688 50.1668C289.688 47.6007 288.091 45.2981 285.638 44.3424L221.384 19.3055L221.378 19.303L221.263 19.2591C220.496 18.9594 219.691 18.8126 218.875 18.8126C218.059 18.8126 217.253 18.9594 216.487 19.2591L216.372 19.303L216.366 19.3055L154.5 43.4118L92.6344 19.3055L92.628 19.303L92.5134 19.2591C91.746 18.9594 90.9413 18.8126 90.125 18.8126C89.3088 18.8126 88.5028 18.9594 87.7367 19.2591L87.6221 19.303L87.6157 19.3055L23.3618 44.3424C20.9104 45.2981 19.3126 47.6007 19.3126 50.1668L19.3126 137.958C19.3126 140.524 20.9091 142.827 23.3618 143.783ZM225.313 34.3455L276.813 54.4109L276.813 128.695L225.313 108.63L225.313 34.3467L225.313 34.3455ZM218.875 119.629L265.919 137.958L218.875 156.287L171.834 137.957L218.875 119.629ZM160.938 54.4096L212.438 34.3442L212.438 108.627L160.938 128.691L160.938 54.4083L160.938 54.4096ZM160.938 147.22L212.438 167.287L212.438 241.57L160.938 221.505L160.938 147.222L160.938 147.22ZM201.544 250.835L154.5 269.163L107.456 250.835L154.5 232.506L201.544 250.836L201.544 250.835ZM96.5625 241.569L96.5625 167.288L148.063 147.222L148.063 221.503L96.5625 241.568L96.5625 241.569ZM96.5625 34.3467L148.063 54.4121L148.063 128.696L96.5625 108.631L96.5625 34.348L96.5625 34.3467ZM90.125 119.63L137.166 137.958L90.125 156.288L43.0811 137.96L90.125 119.631L90.125 119.63ZM32.1876 54.4109L83.6876 34.3455L83.6876 108.628L32.1876 128.693L32.1876 54.4096L32.1876 54.4109Z" fill="black"/>
</g>
<defs>
<clipPath id="clip0_32_2">
<rect width="309" height="301" fill="white" transform="translate(309 301) rotate(-180)"/>
</clipPath>
</defs>
</svg>
