<svg width="60" height="60" viewBox="0 0 60 60" fill="none" xmlns="http://www.w3.org/2000/svg">
<path d="M18.3 56H41.9001C44.6001 56 46.7001 53.8 46.7001 51.2V18.7H48.8C49.4 18.7 49.8 18.3 49.8 17.7V15.4C49.8 13.3 48.1 11.7 46.1 11.7H37.6V9.1C37.6 7.4 36.2001 6 34.5 6H25.6C23.9 6 22.5 7.4 22.5 9.1V11.7H14C11.9 11.7 10.3 13.4 10.3 15.4V17.7C10.3 18.3 10.7 18.7 11.3 18.7H13.4V51.2C13.4 53.8 15.6 56 18.3 56ZM44.7001 51.2C44.7001 52.8 43.4001 54 41.9001 54H18.3C16.7 54 15.5 52.7 15.5 51.2V18.7H44.8V51.2H44.7001ZM24.5 9.1C24.5 8.5 25 8 25.6 8H34.5C35.1 8 35.6 8.5 35.6 9.1V11.7H24.6V9.1H24.5ZM12.3 15.4C12.3 14.4 13.1 13.7 14 13.7H46C47 13.7 47.7001 14.5 47.7001 15.4V16.7H12.3V15.4Z" fill="black"/>
<path d="M37.9 49.2C38.5 49.2 38.9 48.8 38.9 48.2V24.4C38.9 23.8 38.5 23.4 37.9 23.4C37.3 23.4 36.9 23.8 36.9 24.4V48.2C36.9 48.8 37.4 49.2 37.9 49.2ZM30.1 49.2C30.7 49.2 31.1 48.8 31.1 48.2V24.4C31.1 23.8 30.7 23.4 30.1 23.4C29.5 23.4 29.1 23.8 29.1 24.4V48.2C29.1 48.8 29.5 49.2 30.1 49.2ZM22.2 49.2C22.8 49.2 23.2 48.8 23.2 48.2V24.4C23.2 23.8 22.8 23.4 22.2 23.4C21.6 23.4 21.2 23.8 21.2 24.4V48.2C21.2 48.8 21.6 49.2 22.2 49.2Z" fill="black"/>
</svg>
