<svg width="50" height="50" viewBox="0 0 50 50" fill="none" xmlns="http://www.w3.org/2000/svg">
<path d="M8.79297 14H30.793V16H8.79297V14ZM8.79297 20H30.793V22H8.79297V20ZM8.79297 26H25.793V28H8.79297V26ZM8.79297 32H20.793V34H8.79297V32ZM8.79297 38H20.793V40H8.79297V38Z" fill="black"/>
<path d="M38.793 18.586V8.586L31.207 1H0.792969V49H38.793V31.414L49.207 21L42.793 14.586L38.793 18.586ZM37.793 22.414L41.379 26L29.379 38H25.793V34.414L37.793 22.414ZM31.793 4.414L35.379 8H31.793V4.414ZM36.793 47H2.79297V3H29.793V10H36.793V20.586L23.793 33.586V40H30.207L36.793 33.414V47ZM42.793 24.586L39.207 21L42.793 17.414L46.379 21L42.793 24.586Z" fill="black"/>
</svg>
